PathFileType	4	(X/Y/Z)	 s02c0303.trc
DataRate	CameraRate	NumFrames	NumMarkers	Units	OrigDataRate	OrigDataStartFrame	OrigNumFrames
200	200	6	50	mm	200	1	2000
Frame#	Time	racr			lacr			c7			jug			rlel			rdr			llel			ldr			s2			lic			ric			lasi			rasi			rpsi			lpsi			rgt			lgt			rth1			rth2			rth3			rth4			rlfc			rmfc			rsh1			rsh2			rsh3			rsh4			rlmal			rmmal			rtoe			rmt5			rmt1			lth1			lth2			lth4			lth3			llfc			lmfc			lsh1			lsh2			lsh3			lsh4			llmal			lmmal			lcal			ltoe			lmt5			SBIKE			LBIKE			RBIKE			
		X1	Y1	Z1	X2	Y2	Z2	X3	Y3	Z3	X4	Y4	Z4	X5	Y5	Z5	X6	Y6	Z6	X7	Y7	Z7	X8	Y8	Z8	X9	Y9	Z9	X10	Y10	Z10	X11	Y11	Z11	X12	Y12	Z12	X13	Y13	Z13	X14	Y14	Z14	X15	Y15	Z15	X16	Y16	Z16	X17	Y17	Z17	X18	Y18	Z18	X19	Y19	Z19	X20	Y20	Z20	X21	Y21	Z21	X22	Y22	Z22	X23	Y23	Z23	X24	Y24	Z24	X25	Y25	Z25	X26	Y26	Z26	X27	Y27	Z27	X28	Y28	Z28	X29	Y29	Z29	X30	Y30	Z30	X31	Y31	Z31	X32	Y32	Z32	X33	Y33	Z33	X34	Y34	Z34	X35	Y35	Z35	X36	Y36	Z36	X37	Y37	Z37	X38	Y38	Z38	X39	Y39	Z39	X40	Y40	Z40	X41	Y41	Z41	X42	Y42	Z42	X43	Y43	Z43	X44	Y44	Z44	X45	Y45	Z45	X46	Y46	Z46	X47	Y47	Z47	X48	Y48	Z48	X49	Y49	Z49	X50	Y50	Z50	
1	0.0050	491.171213	1280.173530	-122.396628	510.753683	1288.901086	-463.534528	525.862604	1302.317008	-297.389940	NaN	NaN	NaN	605.339096	1036.260246	-108.515313	727.101929	841.021381	-125.448596	593.825705	1029.723051	-502.569356	720.079101	835.679655	-472.179299	6.263222	1116.236784	-313.815427	142.042621	1100.092684	-454.453518	133.577640	1100.625461	-168.662592	189.790174	1063.169982	-430.613857	182.591193	1080.552660	-203.535258	22.799744	1139.280743	-274.297581	31.906167	1147.564635	-359.422607	108.614267	1020.780555	-125.150118	87.251725	1011.395087	-491.500536	190.003315	1005.477004	-126.394946	277.383978	994.876651	-134.323062	348.820236	953.354540	-110.170515	287.414370	1017.809586	-162.251475	469.542733	865.412017	-140.092405	466.942361	845.187062	-253.049940	456.463015	752.961100	-124.523129	445.583862	666.280472	-144.813074	397.160006	593.724115	-138.693496	457.088200	664.464592	-181.569698	344.555820	486.744566	-145.463773	351.929455	508.726501	-224.800604	553.563848	423.433050	-187.584455	445.720669	409.381194	-127.752843	471.030292	423.650736	-235.446803	192.763240	916.409385	-509.665177	262.653390	866.231571	-508.493097	288.045194	885.774258	-489.255957	297.417065	783.206094	-509.556255	354.238592	698.026528	-488.047357	360.933055	669.935720	-385.041904	306.240554	606.051817	-505.797362	273.145910	528.088797	-487.086876	202.546517	472.069885	-489.353771	290.419798	519.923199	-451.494956	128.475130	403.736887	-470.745287	142.760433	392.207444	-394.812773	50.852490	403.579936	-429.282374	251.364682	199.306620	-440.649021	157.518134	255.704785	-499.331155	-126.571217	871.707844	-308.181269	37.215731	86.606670	-514.333642	34.382573	82.647324	-114.136899	
2	0.0100	491.161977	1280.178428	-122.408002	510.697634	1288.874461	-463.544522	525.840435	1302.310706	-297.409330	NaN	NaN	NaN	605.322472	1036.247787	-108.499587	727.093692	841.035134	-125.442452	593.783026	1029.694709	-502.591995	720.085015	835.692536	-472.171192	6.254312	1116.236325	-313.827678	142.029557	1100.082268	-454.446458	133.580833	1100.599298	-168.661286	189.775099	1063.170976	-430.636206	182.581110	1080.561648	-203.520468	22.821230	1139.287520	-274.324319	31.878925	1147.568223	-359.427789	108.611145	1020.772126	-125.152184	87.247121	1011.404842	-491.519082	190.004643	1005.486696	-126.383946	277.379121	994.908543	-134.304232	348.789249	953.377737	-110.152713	287.405109	1017.812288	-162.231788	469.526944	865.442339	-140.021604	466.928133	845.206734	-253.040786	456.464925	753.000425	-124.508408	445.575600	666.295042	-144.806826	397.145369	593.761646	-138.678921	457.074306	664.467268	-181.544088	344.517425	486.793801	-145.467937	352.288696	508.651208	-224.525608	553.545137	423.467203	-187.581717	445.690212	409.419454	-127.748344	470.999980	423.668418	-235.433179	192.742714	916.379547	-509.681735	262.613946	866.207240	-508.489225	287.997287	885.751190	-489.235413	297.383898	783.168667	-509.551508	354.196366	698.000039	-488.027213	360.885337	669.902063	-385.008115	306.195028	606.040973	-505.782606	273.104475	528.062779	-487.086317	202.530594	472.037541	-489.372485	290.384960	519.910569	-451.496296	128.448981	403.700233	-470.743050	142.730734	392.188234	-394.803162	50.832486	403.518082	-429.285440	251.376343	199.286652	-440.655785	157.524876	255.679171	-499.325114	-126.565537	871.704137	-308.169349	37.233820	86.595632	-514.350439	34.414799	82.636185	-114.134289	
3	0.0150	491.155991	1280.174161	-122.409802	510.667109	1288.862718	-463.543522	525.792779	1302.296670	-297.416928	NaN	NaN	NaN	605.334342	1036.249214	-108.490848	727.091747	841.036059	-125.448748	593.752187	1029.676682	-502.614753	720.079537	835.684946	-472.167800	6.238727	1116.223641	-313.820151	142.036621	1100.082788	-454.440845	133.580102	1100.595663	-168.645722	189.760753	1063.171178	-430.618507	182.559593	1080.564624	-203.514185	22.821230	1139.287520	-274.324319	31.868703	1147.569518	-359.429497	108.608256	1020.780542	-125.143611	87.237464	1011.402301	-491.525109	189.980978	1005.494142	-126.381818	277.362939	994.928010	-134.271456	348.798426	953.397545	-110.132350	287.406236	1017.845428	-162.222305	469.523976	865.471234	-140.017252	466.940671	845.230836	-252.998564	456.453832	753.025964	-124.485291	445.552661	666.343469	-144.778376	397.131508	593.798025	-138.661400	457.054951	664.512745	-181.526579	344.491098	486.847358	-145.449870	351.909882	508.781057	-224.824868	553.513423	423.510839	-187.573178	445.674154	409.446474	-127.746672	470.991599	423.703228	-235.429672	192.728769	916.364583	-509.675485	262.574544	866.180589	-508.482751	287.962689	885.730571	-489.225377	297.346015	783.149055	-509.544280	354.165876	697.987548	-488.022494	360.847758	669.882991	-385.002589	306.164164	606.024545	-505.764272	273.079115	528.039482	-487.078666	202.504572	472.012993	-489.368634	290.353134	519.880760	-451.486815	128.428745	403.655891	-470.740827	142.706306	392.140527	-394.795206	50.823176	403.453089	-429.284032	251.393157	199.267490	-440.661174	157.544821	255.635147	-499.331455	-126.567819	871.707716	-308.175813	37.240047	86.590037	-514.344658	34.412386	82.662659	-114.128199	
4	0.0200	491.139581	1280.164344	-122.423241	510.626627	1288.847199	-463.557501	525.770934	1302.308544	-297.433563	NaN	NaN	NaN	604.814079	1036.567625	-107.820825	727.085617	841.010459	-125.456374	593.728979	1029.659184	-502.628082	720.188679	835.891456	-472.385954	7.728525	1115.974468	-315.064929	142.038299	1099.889523	-454.494700	133.566590	1100.606127	-168.649975	189.754051	1063.178465	-430.606145	182.558686	1080.571761	-203.511570	22.815800	1139.291343	-274.309835	33.400014	1146.789952	-360.368751	109.107944	1019.708386	-127.552113	87.218851	1011.390644	-491.506060	187.649462	1004.432869	-128.327241	277.163044	994.613194	-134.679455	348.800254	953.436899	-110.114118	287.060077	1018.018967	-161.993528	469.508578	865.507533	-139.976477	466.942071	845.257276	-252.971659	457.128448	752.341618	-125.423082	443.328928	664.548168	-145.098017	397.113962	593.840156	-138.654487	455.021070	663.368319	-181.897117	343.890732	487.752957	-144.709714	351.659128	508.637986	-225.309234	553.491275	423.564009	-187.580757	445.662803	409.484674	-127.747117	470.958528	423.756775	-235.450381	192.706366	916.356126	-509.685239	262.764515	865.754841	-508.516709	288.196635	885.758666	-489.454581	297.329006	783.120468	-509.510071	354.378317	697.890495	-487.854277	360.801843	669.881331	-384.967582	306.128062	606.001420	-505.762915	273.309034	527.960679	-487.497121	202.435307	472.088098	-489.419668	290.351472	519.849092	-451.479138	128.431045	403.618218	-470.733998	142.707342	392.090988	-394.812031	50.818608	403.405214	-429.284899	251.416497	199.246229	-440.672481	157.496382	255.352777	-499.438028	-126.566882	871.707898	-308.171492	37.230726	86.591791	-514.341104	34.117976	82.806107	-114.265402	
5	0.0250	490.744087	1280.417607	-121.850591	510.381506	1289.073904	-463.275269	525.485094	1302.543288	-296.892703	NaN	NaN	NaN	604.798784	1036.690104	-107.719302	727.024743	840.930021	-125.331145	593.628579	1029.872174	-502.433173	720.056761	835.943398	-472.389294	7.870412	1116.021805	-315.143172	142.040292	1099.588124	-454.581050	133.215271	1101.069716	-168.327614	189.623362	1063.107586	-430.168748	182.488811	1080.480000	-203.521556	21.234466	1140.357102	-272.815812	33.410272	1146.835883	-360.379073	108.611510	1020.166882	-126.827778	87.161708	1011.464054	-491.442466	188.544259	1005.468775	-127.299268	276.918756	995.119698	-134.134797	348.426124	953.873809	-109.586230	286.988128	1018.167317	-162.019587	469.470350	865.661358	-140.036705	466.742187	845.756719	-252.615814	456.688080	752.763724	-125.099865	443.318515	665.113287	-144.839652	396.764071	594.222505	-138.384138	455.013626	663.549469	-181.869165	343.822007	487.812245	-144.620475	351.488278	508.948662	-225.045065	553.184069	423.856883	-187.377487	445.257491	409.934374	-127.366257	470.790353	424.149695	-235.297096	192.533987	916.676298	-509.460810	262.819049	865.872328	-508.533121	288.213325	885.778184	-489.401642	297.336566	783.162971	-509.518024	354.048486	698.243721	-487.640981	360.337252	670.451277	-384.710329	305.976078	606.211313	-505.626522	272.963089	528.261943	-487.045492	202.399686	472.255202	-489.287287	290.160469	520.139405	-451.014351	128.386554	403.596815	-470.725321	142.935081	391.821471	-394.965490	50.653610	403.540533	-429.181710	251.413137	199.249473	-440.571997	157.576276	255.413171	-499.322641	-126.592268	871.707958	-308.190699	37.146373	86.452985	-514.313592	33.680794	83.295661	-114.323420	
6	0.0300	490.658563	1280.464454	-121.695729	510.253334	1289.012741	-463.147141	525.407600	1302.574699	-296.790586	NaN	NaN	NaN	604.800833	1036.732457	-107.647776	727.047001	840.969684	-125.242700	593.599057	1029.899724	-502.350955	719.985895	835.896781	-472.293246	7.860095	1116.056221	-315.177437	142.031012	1099.566522	-454.588675	133.175749	1101.129440	-168.358900	189.657971	1063.113776	-430.073430	182.472966	1080.482164	-203.541429	21.372128	1140.304488	-272.829621	33.418016	1146.870556	-360.386865	108.495406	1020.295179	-126.548608	87.128576	1011.473973	-491.409539	188.745087	1005.671698	-127.044719	276.864627	995.238517	-134.030710	348.366440	954.020210	-109.416519	286.967867	1018.221749	-162.037648	469.450324	865.754867	-140.037633	466.714119	845.880248	-252.538784	456.625774	752.859486	-125.090703	443.352400	665.306567	-144.761460	396.694163	594.343953	-138.355074	454.988458	663.660414	-181.862177	343.786749	487.864642	-144.571559	351.429434	509.054622	-224.939062	553.118478	423.937313	-187.381017	445.179129	410.035646	-127.300345	470.888909	424.485123	-235.471786	192.469935	916.743718	-509.368577	262.804754	865.892986	-508.475086	288.193429	885.787665	-489.342613	297.290731	783.175707	-509.462430	353.953981	698.285735	-487.556588	360.182358	670.573398	-384.531369	305.956898	606.243086	-505.555314	272.889062	528.309655	-486.940541	202.420156	472.234415	-489.206381	290.150378	520.177719	-450.894483	128.393966	403.572771	-470.722518	142.809306	391.915383	-394.862385	50.649560	403.522188	-429.154661	251.416230	199.210466	-440.510239	157.610125	255.397790	-499.271059	-126.577145	871.695589	-308.213198	37.129087	86.454089	-514.250812	33.591087	83.378956	-114.361071	
